<svg width="25" height="25" viewBox="0 0 25 25" fill="none" xmlns="http://www.w3.org/2000/svg">
<g id="fi-rs-barber-shop" clip-path="url(#clip0_349_5570)">
<path id="Vector" d="M18.4999 3.30469V4.30469H24.4999V6.30469H18.4999V8.30469H24.4999V10.3047H18.4999V12.3047H24.4999V14.3047H18.4999V16.3047H24.4999V18.3047H18.4999V24.3047H16.4999V3.30469C16.4999 2.50904 16.816 1.74598 17.3786 1.18337C17.9412 0.620758 18.7043 0.304688 19.4999 0.304688L24.4999 0.304688V2.30469H19.4999C19.2347 2.30469 18.9804 2.41004 18.7928 2.59758C18.6053 2.78512 18.4999 3.03947 18.4999 3.30469ZM14.4999 20.3047C14.5035 21.1191 14.2574 21.915 13.7947 22.5852C13.332 23.2554 12.675 23.7677 11.9122 24.053C11.1494 24.3383 10.3175 24.3829 9.52856 24.1808C8.73963 23.9787 8.03161 23.5396 7.49992 22.9227C7.08073 23.4049 6.55184 23.7793 5.95776 24.0145C5.36369 24.2497 4.72181 24.3387 4.08616 24.2741C3.4505 24.2095 2.83966 23.9932 2.30505 23.6433C1.77044 23.2934 1.32769 22.8202 1.01408 22.2635C0.700464 21.7069 0.525156 21.083 0.502908 20.4445C0.480659 19.8059 0.612122 19.1714 0.886231 18.5942C1.16034 18.0171 1.56908 17.5142 2.07804 17.128C2.587 16.7417 3.1813 16.4834 3.81092 16.3747L6.41192 10.3047L4.76292 6.45569C3.92742 4.51276 3.49764 2.41964 3.49992 0.304688L5.49992 0.304688C5.49737 2.14895 5.87169 3.97429 6.59992 5.66869L7.49992 7.76869L8.39992 5.66869C9.12815 3.97429 9.50247 2.14895 9.49992 0.304688H11.4999C11.5022 2.41964 11.0724 4.51276 10.2369 6.45569L8.58792 10.3047L11.1879 16.3747C12.1137 16.5363 12.953 17.0188 13.5586 17.7374C14.1642 18.456 14.4975 19.3649 14.4999 20.3047ZM6.49992 20.3047C6.49992 19.9091 6.38262 19.5224 6.16286 19.1935C5.9431 18.8647 5.63074 18.6083 5.26529 18.4569C4.89984 18.3056 4.4977 18.2659 4.10974 18.3431C3.72178 18.4203 3.36541 18.6108 3.08571 18.8905C2.806 19.1702 2.61552 19.5265 2.53835 19.9145C2.46118 20.3025 2.50079 20.7046 2.65216 21.0701C2.80354 21.4355 3.05988 21.7479 3.38878 21.9676C3.71768 22.1874 4.10436 22.3047 4.49992 22.3047C5.03035 22.3047 5.53906 22.094 5.91413 21.7189C6.28921 21.3438 6.49992 20.8351 6.49992 20.3047ZM7.49992 17.6867C7.93256 17.1881 8.48239 16.805 9.09992 16.5717L7.49992 12.8427L5.89992 16.5717C6.51745 16.805 7.06728 17.1881 7.49992 17.6867ZM12.4999 20.3047C12.4999 19.9091 12.3826 19.5224 12.1629 19.1935C11.9431 18.8647 11.6307 18.6083 11.2653 18.4569C10.8998 18.3056 10.4977 18.2659 10.1097 18.3431C9.72178 18.4203 9.36541 18.6108 9.08571 18.8905C8.806 19.1702 8.61552 19.5265 8.53835 19.9145C8.46118 20.3025 8.50079 20.7046 8.65216 21.0701C8.80354 21.4355 9.05988 21.7479 9.38878 21.9676C9.71768 22.1874 10.1044 22.3047 10.4999 22.3047C11.0304 22.3047 11.5391 22.094 11.9141 21.7189C12.2892 21.3438 12.4999 20.8351 12.4999 20.3047Z" fill="#374957"/>
</g>
<defs>
<clipPath id="clip0_349_5570">
<rect width="24" height="24" fill="white" transform="translate(0.5 0.304688)"/>
</clipPath>
</defs>
</svg>
