<svg width="25" height="25" viewBox="0 0 25 25" fill="none" xmlns="http://www.w3.org/2000/svg">
<g id="fi-rs-ambulance" clip-path="url(#clip0_349_5565)">
<path id="Vector" d="M24.5723 15.366C24.5734 14.5261 24.3972 13.6953 24.0553 12.928L21.2783 6.67904C20.9632 5.97249 20.4503 5.37225 19.8015 4.95081C19.1528 4.52936 18.3959 4.30473 17.6223 4.30404H14.5723L13.8153 1.27404C13.7462 0.996661 13.5863 0.750368 13.361 0.574358C13.1358 0.398348 12.8581 0.302734 12.5723 0.302734C12.2864 0.302734 12.0088 0.398348 11.7835 0.574358C11.5583 0.750368 11.3984 0.996661 11.3293 1.27404L10.5723 4.30404H3.57227C2.77662 4.30404 2.01355 4.62011 1.45095 5.18272C0.888336 5.74533 0.572266 6.50839 0.572266 7.30404L0.572266 20.3041H2.61327C2.58754 20.4695 2.57383 20.6366 2.57227 20.8041C2.57227 21.7323 2.94101 22.6226 3.59739 23.2789C4.25377 23.9353 5.14401 24.3041 6.07227 24.3041C7.00052 24.3041 7.89076 23.9353 8.54714 23.2789C9.20352 22.6226 9.57227 21.7323 9.57227 20.8041C9.5707 20.6366 9.557 20.4695 9.53127 20.3041H15.6133C15.5875 20.4695 15.5738 20.6366 15.5723 20.8041C15.5723 21.7323 15.941 22.6226 16.5974 23.2789C17.2538 23.9353 18.144 24.3041 19.0723 24.3041C20.0005 24.3041 20.8908 23.9353 21.5471 23.2789C22.2035 22.6226 22.5723 21.7323 22.5723 20.8041C22.5707 20.6366 22.557 20.4695 22.5313 20.3041H24.5723V15.366ZM19.4503 7.49204L21.1443 11.304H16.5723V6.30404H17.6223C18.0092 6.30399 18.3879 6.4162 18.7124 6.62707C19.0368 6.83794 19.2932 7.1384 19.4503 7.49204ZM7.57227 20.8041C7.57227 21.2019 7.41423 21.5834 7.13293 21.8647C6.85162 22.146 6.47009 22.3041 6.07227 22.3041C5.67444 22.3041 5.29291 22.146 5.01161 21.8647C4.7303 21.5834 4.57227 21.2019 4.57227 20.8041C4.57288 20.6331 4.60439 20.4638 4.66527 20.3041H7.47927C7.54014 20.4638 7.57165 20.6331 7.57227 20.8041ZM20.5723 20.8041C20.5723 21.2019 20.4142 21.5834 20.1329 21.8647C19.8516 22.146 19.4701 22.3041 19.0723 22.3041C18.6744 22.3041 18.2929 22.146 18.0116 21.8647C17.7303 21.5834 17.5723 21.2019 17.5723 20.8041C17.5729 20.6331 17.6044 20.4638 17.6653 20.3041H20.4793C20.5401 20.4638 20.5717 20.6331 20.5723 20.8041ZM22.5723 18.3041H2.57227V7.30404C2.57227 7.03883 2.67762 6.78447 2.86516 6.59694C3.0527 6.4094 3.30705 6.30404 3.57227 6.30404H14.5723V13.304H22.0333L22.2273 13.741C22.4556 14.2523 22.5732 14.8061 22.5723 15.366V18.3041ZM9.57227 11.304H11.5723V13.304H9.57227V15.304H7.57227V13.304H5.57227V11.304H7.57227V9.30404H9.57227V11.304Z" fill="#374957"/>
</g>
<defs>
<clipPath id="clip0_349_5565">
<rect width="24" height="24" fill="white" transform="translate(0.572266 0.304688)"/>
</clipPath>
</defs>
</svg>
